<mxfile host="Electron" modified="2023-11-11T15:04:17.537Z" agent="Mozilla/5.0 (X11; Linux x86_64) AppleWebKit/537.36 (KHTML, like Gecko) draw.io/22.0.3 Chrome/114.0.5735.289 Electron/25.8.4 Safari/537.36" etag="G5CxQ4aKturhZuyWMXPt" version="22.0.3" type="device">
  <diagram name="Page-1" id="Xqh2jz8IiV47dMP1JLX5">
    <mxGraphModel dx="989" dy="588" grid="1" gridSize="10" guides="1" tooltips="1" connect="1" arrows="1" fold="1" page="1" pageScale="1" pageWidth="850" pageHeight="1100" math="0" shadow="0">
      <root>
        <mxCell id="0" />
        <mxCell id="1" parent="0" />
        <mxCell id="E6W_yO-c9M5yTiNMVYI_-2" value="" style="rounded=0;whiteSpace=wrap;html=1;fillColor=#EEEEEE;" parent="1" vertex="1">
          <mxGeometry x="180" y="160" width="450" height="240" as="geometry" />
        </mxCell>
        <mxCell id="E6W_yO-c9M5yTiNMVYI_-3" value="&lt;font style=&quot;font-size: 10px;&quot;&gt;&lt;b style=&quot;font-size: 10px;&quot;&gt;REST API Server&lt;/b&gt;&lt;/font&gt;" style="text;html=1;strokeColor=none;fillColor=none;align=center;verticalAlign=middle;whiteSpace=wrap;rounded=0;fontSize=10;" parent="1" vertex="1">
          <mxGeometry x="257.5" y="288" width="60" height="30" as="geometry" />
        </mxCell>
        <mxCell id="E6W_yO-c9M5yTiNMVYI_-4" value="&lt;font style=&quot;font-size: 10px;&quot;&gt;Edit/Fetch rows from database&lt;/font&gt;" style="text;html=1;strokeColor=none;fillColor=none;align=center;verticalAlign=middle;whiteSpace=wrap;rounded=0;fontStyle=2;fontSize=10;" parent="1" vertex="1">
          <mxGeometry x="340" y="220" width="180" height="30" as="geometry" />
        </mxCell>
        <mxCell id="E6W_yO-c9M5yTiNMVYI_-5" style="edgeStyle=orthogonalEdgeStyle;rounded=0;orthogonalLoop=1;jettySize=auto;html=1;" parent="1" target="E6W_yO-c9M5yTiNMVYI_-11" edge="1">
          <mxGeometry relative="1" as="geometry">
            <mxPoint x="310" y="249.0344827586207" as="sourcePoint" />
            <mxPoint x="550" y="249.0344827586207" as="targetPoint" />
          </mxGeometry>
        </mxCell>
        <mxCell id="E6W_yO-c9M5yTiNMVYI_-6" value="&lt;font style=&quot;font-size: 10px;&quot;&gt;Fetch q&lt;span style=&quot;background-color: initial; font-size: 10px;&quot;&gt;uestion based on parameters&lt;/span&gt;&lt;br style=&quot;font-size: 10px;&quot;&gt;Fetch&amp;nbsp;&lt;span style=&quot;background-color: initial; font-size: 10px;&quot;&gt;Languages&lt;/span&gt;&lt;br style=&quot;font-size: 10px;&quot;&gt;Fetch&amp;nbsp;&lt;span style=&quot;background-color: initial; font-size: 10px;&quot;&gt;Categories&lt;/span&gt;&lt;/font&gt;&lt;font style=&quot;font-size: 10px;&quot;&gt;&lt;br style=&quot;font-size: 10px;&quot;&gt;&lt;/font&gt;" style="text;html=1;strokeColor=none;fillColor=none;align=center;verticalAlign=middle;whiteSpace=wrap;rounded=0;fontStyle=2;fontSize=10;" parent="1" vertex="1">
          <mxGeometry x="490" y="55" width="180" height="30" as="geometry" />
        </mxCell>
        <mxCell id="E6W_yO-c9M5yTiNMVYI_-7" value="&lt;font style=&quot;font-size: 10px;&quot;&gt;Fetch access token public key&lt;/font&gt;" style="text;html=1;strokeColor=none;fillColor=none;align=center;verticalAlign=middle;whiteSpace=wrap;rounded=0;fontStyle=2;fontSize=10;" parent="1" vertex="1">
          <mxGeometry x="330.21" y="55" width="90" height="30" as="geometry" />
        </mxCell>
        <mxCell id="E6W_yO-c9M5yTiNMVYI_-8" value="&lt;font style=&quot;font-size: 10px;&quot;&gt;&lt;b style=&quot;font-size: 10px;&quot;&gt;Client/Server&lt;/b&gt;&lt;/font&gt;" style="text;html=1;strokeColor=none;fillColor=none;align=center;verticalAlign=middle;whiteSpace=wrap;rounded=0;fontSize=10;" parent="1" vertex="1">
          <mxGeometry x="80" y="234.5" width="90" height="30" as="geometry" />
        </mxCell>
        <mxCell id="E6W_yO-c9M5yTiNMVYI_-9" value="" style="sketch=0;pointerEvents=1;shadow=0;dashed=0;html=1;strokeColor=none;fillColor=#2072B8;labelPosition=center;verticalLabelPosition=bottom;verticalAlign=top;outlineConnect=0;align=center;shape=mxgraph.office.servers.server_generic;" parent="1" vertex="1">
          <mxGeometry x="274.22999999999996" y="30" width="41.54" height="80" as="geometry" />
        </mxCell>
        <mxCell id="E6W_yO-c9M5yTiNMVYI_-10" value="&lt;font style=&quot;font-size: 10px;&quot;&gt;Matching Service&lt;/font&gt;" style="text;html=1;strokeColor=none;fillColor=none;align=center;verticalAlign=middle;whiteSpace=wrap;rounded=0;fontStyle=4;fontSize=10;" parent="1" vertex="1">
          <mxGeometry x="180" y="160" width="90" height="30" as="geometry" />
        </mxCell>
        <mxCell id="E6W_yO-c9M5yTiNMVYI_-11" value="" style="sketch=0;shadow=0;dashed=0;html=1;strokeColor=none;fillColor=#505050;labelPosition=center;verticalLabelPosition=bottom;verticalAlign=top;outlineConnect=0;align=center;shape=mxgraph.office.databases.database;" parent="1" vertex="1">
          <mxGeometry x="546.43" y="212" width="53.57" height="75" as="geometry" />
        </mxCell>
        <mxCell id="E6W_yO-c9M5yTiNMVYI_-12" value="" style="sketch=0;pointerEvents=1;shadow=0;dashed=0;html=1;strokeColor=none;fillColor=#7FBA42;labelPosition=center;verticalLabelPosition=bottom;verticalAlign=top;outlineConnect=0;align=center;shape=mxgraph.office.servers.server_generic;" parent="1" vertex="1">
          <mxGeometry x="266.72999999999996" y="210" width="41.54" height="80" as="geometry" />
        </mxCell>
        <mxCell id="E6W_yO-c9M5yTiNMVYI_-13" style="edgeStyle=orthogonalEdgeStyle;rounded=0;orthogonalLoop=1;jettySize=auto;html=1;" parent="1" source="E6W_yO-c9M5yTiNMVYI_-8" target="E6W_yO-c9M5yTiNMVYI_-12" edge="1">
          <mxGeometry relative="1" as="geometry" />
        </mxCell>
        <mxCell id="E6W_yO-c9M5yTiNMVYI_-14" style="edgeStyle=orthogonalEdgeStyle;rounded=0;orthogonalLoop=1;jettySize=auto;html=1;" parent="1" source="E6W_yO-c9M5yTiNMVYI_-12" target="E6W_yO-c9M5yTiNMVYI_-9" edge="1">
          <mxGeometry relative="1" as="geometry">
            <mxPoint x="287.51724137931046" y="210.16347699909795" as="sourcePoint" />
            <mxPoint x="330" y="110" as="targetPoint" />
            <Array as="points">
              <mxPoint x="330" y="230" />
              <mxPoint x="330" y="70" />
            </Array>
          </mxGeometry>
        </mxCell>
        <mxCell id="E6W_yO-c9M5yTiNMVYI_-15" value="" style="sketch=0;pointerEvents=1;shadow=0;dashed=0;html=1;strokeColor=none;fillColor=#2072B8;labelPosition=center;verticalLabelPosition=bottom;verticalAlign=top;outlineConnect=0;align=center;shape=mxgraph.office.servers.server_generic;" parent="1" vertex="1">
          <mxGeometry x="266.72999999999996" y="420" width="41.54" height="80" as="geometry" />
        </mxCell>
        <mxCell id="E6W_yO-c9M5yTiNMVYI_-16" style="edgeStyle=orthogonalEdgeStyle;rounded=0;orthogonalLoop=1;jettySize=auto;html=1;" parent="1" source="E6W_yO-c9M5yTiNMVYI_-12" target="E6W_yO-c9M5yTiNMVYI_-15" edge="1">
          <mxGeometry relative="1" as="geometry">
            <Array as="points">
              <mxPoint x="330" y="270" />
              <mxPoint x="330" y="460" />
            </Array>
          </mxGeometry>
        </mxCell>
        <mxCell id="E6W_yO-c9M5yTiNMVYI_-17" value="&lt;font style=&quot;font-size: 10px;&quot;&gt;&lt;b style=&quot;font-size: 10px;&quot;&gt;User Service&lt;/b&gt;&lt;/font&gt;" style="text;html=1;strokeColor=none;fillColor=none;align=center;verticalAlign=middle;whiteSpace=wrap;rounded=0;fontSize=10;" parent="1" vertex="1">
          <mxGeometry x="250.00000000000003" y="110" width="90" height="30" as="geometry" />
        </mxCell>
        <mxCell id="E6W_yO-c9M5yTiNMVYI_-18" value="" style="sketch=0;pointerEvents=1;shadow=0;dashed=0;html=1;strokeColor=none;fillColor=#DA4026;labelPosition=center;verticalLabelPosition=bottom;verticalAlign=top;outlineConnect=0;align=center;shape=mxgraph.office.servers.server_generic;" parent="1" vertex="1">
          <mxGeometry x="379.99999999999994" y="280" width="41.54" height="80" as="geometry" />
        </mxCell>
        <mxCell id="E6W_yO-c9M5yTiNMVYI_-19" style="edgeStyle=orthogonalEdgeStyle;rounded=0;orthogonalLoop=1;jettySize=auto;html=1;" parent="1" source="E6W_yO-c9M5yTiNMVYI_-18" target="E6W_yO-c9M5yTiNMVYI_-11" edge="1">
          <mxGeometry relative="1" as="geometry">
            <mxPoint x="420" y="327.0344827586207" as="sourcePoint" />
            <mxPoint x="550" y="261.5" as="targetPoint" />
            <Array as="points">
              <mxPoint x="484" y="320" />
              <mxPoint x="484" y="270" />
            </Array>
          </mxGeometry>
        </mxCell>
        <mxCell id="E6W_yO-c9M5yTiNMVYI_-20" value="&lt;b style=&quot;font-size: 10px;&quot;&gt;&lt;font style=&quot;font-size: 10px;&quot;&gt;Database Initialiser&lt;/font&gt;&lt;/b&gt;" style="text;html=1;strokeColor=none;fillColor=none;align=center;verticalAlign=middle;whiteSpace=wrap;rounded=0;fontSize=10;" parent="1" vertex="1">
          <mxGeometry x="370.77" y="366" width="60" height="30" as="geometry" />
        </mxCell>
        <mxCell id="E6W_yO-c9M5yTiNMVYI_-21" value="&lt;b style=&quot;font-size: 10px;&quot;&gt;&lt;font style=&quot;font-size: 10px;&quot;&gt;Database&lt;/font&gt;&lt;/b&gt;" style="text;html=1;strokeColor=none;fillColor=none;align=center;verticalAlign=middle;whiteSpace=wrap;rounded=0;fontSize=10;" parent="1" vertex="1">
          <mxGeometry x="543.21" y="288" width="60" height="30" as="geometry" />
        </mxCell>
        <mxCell id="E6W_yO-c9M5yTiNMVYI_-22" value="&lt;b style=&quot;font-size: 10px;&quot;&gt;&lt;font style=&quot;font-size: 10px;&quot;&gt;Question Service&lt;/font&gt;&lt;/b&gt;" style="text;html=1;strokeColor=none;fillColor=none;align=center;verticalAlign=middle;whiteSpace=wrap;rounded=0;fontSize=10;" parent="1" vertex="1">
          <mxGeometry x="414" y="110" width="90" height="30" as="geometry" />
        </mxCell>
        <mxCell id="E6W_yO-c9M5yTiNMVYI_-23" value="" style="sketch=0;pointerEvents=1;shadow=0;dashed=0;html=1;strokeColor=none;fillColor=#2072B8;labelPosition=center;verticalLabelPosition=bottom;verticalAlign=top;outlineConnect=0;align=center;shape=mxgraph.office.servers.server_generic;" parent="1" vertex="1">
          <mxGeometry x="438.23" y="30" width="41.54" height="80" as="geometry" />
        </mxCell>
        <mxCell id="E6W_yO-c9M5yTiNMVYI_-24" style="edgeStyle=orthogonalEdgeStyle;rounded=0;orthogonalLoop=1;jettySize=auto;html=1;" parent="1" source="E6W_yO-c9M5yTiNMVYI_-12" target="E6W_yO-c9M5yTiNMVYI_-23" edge="1">
          <mxGeometry relative="1" as="geometry">
            <mxPoint x="287.51724137931046" y="210.16347699909795" as="sourcePoint" />
            <mxPoint x="500" y="99.99999999999994" as="targetPoint" />
            <Array as="points">
              <mxPoint x="330" y="230" />
              <mxPoint x="330" y="140" />
              <mxPoint x="510" y="140" />
              <mxPoint x="510" y="70" />
            </Array>
          </mxGeometry>
        </mxCell>
        <mxCell id="E6W_yO-c9M5yTiNMVYI_-25" value="&lt;font style=&quot;font-size: 10px;&quot;&gt;Ensure that DB is in correct state&lt;/font&gt;" style="text;html=1;strokeColor=none;fillColor=none;align=center;verticalAlign=middle;whiteSpace=wrap;rounded=0;fontStyle=2;fontSize=10;" parent="1" vertex="1">
          <mxGeometry x="421.21000000000004" y="320" width="180" height="30" as="geometry" />
        </mxCell>
        <mxCell id="E6W_yO-c9M5yTiNMVYI_-26" value="&lt;font style=&quot;font-size: 10px;&quot;&gt;HTTP Requests&lt;/font&gt;" style="text;html=1;strokeColor=none;fillColor=none;align=center;verticalAlign=middle;whiteSpace=wrap;rounded=0;fontStyle=2;fontSize=10;" parent="1" vertex="1">
          <mxGeometry x="130" y="220" width="180" height="30" as="geometry" />
        </mxCell>
        <mxCell id="E6W_yO-c9M5yTiNMVYI_-27" value="&lt;font style=&quot;font-size: 10px;&quot;&gt;&lt;b style=&quot;font-size: 10px;&quot;&gt;Room Service&lt;/b&gt;&lt;/font&gt;" style="text;html=1;strokeColor=none;fillColor=none;align=center;verticalAlign=middle;whiteSpace=wrap;rounded=0;fontSize=10;" parent="1" vertex="1">
          <mxGeometry x="257.5" y="500" width="60" height="30" as="geometry" />
        </mxCell>
        <mxCell id="E6W_yO-c9M5yTiNMVYI_-28" value="&lt;div style=&quot;font-size: 10px;&quot;&gt;&lt;font style=&quot;font-size: 10px;&quot;&gt;Query if User has room&lt;/font&gt;&lt;/div&gt;&lt;div style=&quot;font-size: 10px;&quot;&gt;&lt;font style=&quot;font-size: 10px;&quot;&gt;Create Room&lt;/font&gt;&lt;/div&gt;" style="text;html=1;strokeColor=none;fillColor=none;align=center;verticalAlign=middle;whiteSpace=wrap;rounded=0;fontStyle=2;fontSize=10;" parent="1" vertex="1">
          <mxGeometry x="330.21" y="430" width="99.79" height="30" as="geometry" />
        </mxCell>
        <mxCell id="xS2F9MabZPiY41AusoCy-1" value="" style="shape=image;verticalLabelPosition=bottom;labelBackgroundColor=default;verticalAlign=top;aspect=fixed;imageAspect=0;image=data:image/svg+xml,PHN2ZyB4bWxucz0iaHR0cDovL3d3dy53My5vcmcvMjAwMC9zdmciIHdpZHRoPSIyNTAwIiB2aWV3Qm94PSI4LjczOCAtNS4wMzYyMjgzNCAxNy40NTk5MjQyMiAzOS40MDYxOTQ4NCIgaGVpZ2h0PSIyNTAwIj48cGF0aCBmaWxsPSIjNTk5NjM2IiBkPSJtMTUuOS4wODcuODU0IDEuNjA0Yy4xOTIuMjk2LjQuNTU4LjY0NS44MDJhMjIuNDA2IDIyLjQwNiAwIDAgMSAyLjAwNCAyLjI2NmMxLjQ0NyAxLjkgMi40MjMgNC4wMSAzLjEyIDYuMjkyLjQxOCAxLjM5NC42NDUgMi44MjQuNjYyIDQuMjcuMDcgNC4zMjMtMS40MTIgOC4wMzUtNC40IDExLjEyYTEyLjcgMTIuNyAwIDAgMSAtMS41NyAxLjM0MmMtLjI5NiAwLS40MzYtLjIyNy0uNTU4LS40MzZhMy41ODkgMy41ODkgMCAwIDEgLS40MzYtMS4yNTVjLS4xMDUtLjUyMy0uMTc0LTEuMDQ2LS4xNC0xLjU4NnYtLjI0NGMtLjAyNC0uMDUyLS4yODUtMjQuMDUyLS4xODEtMjQuMTc1eiIvPjxwYXRoIGZpbGw9IiM2Y2FjNDgiIGQ9Im0xNS45LjAzNGMtLjAzNS0uMDctLjA3LS4wMTctLjEwNS4wMTcuMDE3LjM1LS4xMDUuNjYyLS4yOTYuOTYtLjIxLjI5Ni0uNDg4LjUyMy0uNzY3Ljc2Ny0xLjU1IDEuMzQyLTIuNzcgMi45NjMtMy43NDcgNC43NzYtMS4zIDIuNDQtMS45NyA1LjA1NS0yLjE2IDcuODA4LS4wODcuOTkzLjMxNCA0LjQ5Ny42MjcgNS41MDguODU0IDIuNjg0IDIuMzg4IDQuOTMzIDQuMzc1IDYuODg1LjQ4OC40NyAxLjAxLjkwNiAxLjU1IDEuMzI1LjE1NyAwIC4xNzQtLjE0LjIxLS4yNDRhNC43OCA0Ljc4IDAgMCAwIC4xNTctLjY4bC4zNS0yLjYxNHoiLz48cGF0aCBmaWxsPSIjYzJiZmJmIiBkPSJtMTYuNzU0IDI4Ljg0NWMuMDM1LS40LjIyNy0uNzMyLjQzNi0xLjA2My0uMjEtLjA4Ny0uMzY2LS4yNi0uNDg4LS40NTNhMy4yMzUgMy4yMzUgMCAwIDEgLS4yNi0uNTc1Yy0uMjQ0LS43MzItLjI5Ni0xLjUtLjM2Ni0yLjI0OHYtLjQ1M2MtLjA4Ny4wNy0uMTA1LjY2Mi0uMTA1Ljc1YTE3LjM3IDE3LjM3IDAgMCAxIC0uMzE0IDIuMzUzYy0uMDUyLjMxNC0uMDg3LjYyNy0uMjguOTA2IDAgLjAzNSAwIC4wNy4wMTcuMTIyLjMxNC45MjQuNCAxLjg2NS40NTMgMi44MjR2LjM1YzAgLjQxOC0uMDE3LjMzLjMzLjQ3LjE0LjA1Mi4yOTYuMDcuNDM2LjE3NC4xMDUgMCAuMTIyLS4wODcuMTIyLS4xNTdsLS4wNTItLjU3NXYtMS42MDRjLS4wMTctLjI4LjAzNS0uNTU4LjA3LS44MnoiLz48L3N2Zz4=;" vertex="1" parent="1">
          <mxGeometry x="548.46" y="229.25" width="53.75" height="53.75" as="geometry" />
        </mxCell>
      </root>
    </mxGraphModel>
  </diagram>
</mxfile>
